<svg xmlns="http://www.w3.org/2000/svg" xmlns:xlink="http://www.w3.org/1999/xlink" viewBox="0 0 334.99 375.5"><defs><style>.cls-1{fill:url(#linear-gradient);}.cls-2{fill:#fff;}</style><linearGradient id="linear-gradient" x1="61.74" y1="328.09" x2="273.25" y2="47.4" gradientUnits="userSpaceOnUse"><stop offset="0" stop-color="#ffaa13"/><stop offset="1" stop-color="#ff9607"/></linearGradient></defs><title>Asset 80mdpi</title><g id="Layer_2" data-name="Layer 2"><g id="Layer_1-2" data-name="Layer 1"><path class="cls-1" d="M335,263.34V112.15A36.55,36.55,0,0,0,316.7,80.49L185.77,4.9a36.56,36.56,0,0,0-36.56,0L18.28,80.49A36.56,36.56,0,0,0,0,112.15V263.34A36.56,36.56,0,0,0,18.28,295l130.93,75.6a36.56,36.56,0,0,0,36.56,0L316.7,295A36.55,36.55,0,0,0,335,263.34Z"/><path class="cls-2" d="M229.29,212.48q-3.28-9.31-13.95-15.93,17.24-2.64,21.43-21.25a26.73,26.73,0,0,0,.14-12.53,24,24,0,0,0-5.62-10.43,47.65,47.65,0,0,0-9.71-8.16,94.19,94.19,0,0,0-13.13-6.81l8.26-25-15.24-5-8,24.26q-4-1.31-12.15-3.81l8.1-24.45-15.25-5-8.26,25q-3.3-1-9.64-3.08l-21-7-5.38,16.23,11,3.64q7.53,2.49,6.58,9.65l-9.4,28.42a10.73,10.73,0,0,1,1.55.62l-1.59-.52L124.87,211q-2.46,4.78-7.42,3.15l-11-3.64L97.4,227.6l19.8,6.55,5.43,1.85,5.33,1.83-8.36,25.24,15.25,5.05,8.26-25q4.13,1.47,12,4.1l-8.22,24.85,15.25,5.05,8.35-25.25a127.08,127.08,0,0,0,14.9,3.29,62.67,62.67,0,0,0,13.16.56,34.33,34.33,0,0,0,11.52-2.62,28.68,28.68,0,0,0,9.31-6.69,39.41,39.41,0,0,0,7.31-11.32q5.85-13.32,2.56-22.66Zm-53.6-66.74c.46.16,1.77.58,3.92,1.25l5.39,1.67c1.43.44,3.31,1.15,5.66,2.15a54.87,54.87,0,0,1,5.83,2.81,35.71,35.71,0,0,1,4.9,3.43,15.41,15.41,0,0,1,3.83,4.35,14.5,14.5,0,0,1,1.65,5.16,13.68,13.68,0,0,1-.68,6.2,14.66,14.66,0,0,1-2.56,4.76,10.12,10.12,0,0,1-3.94,2.92,28.23,28.23,0,0,1-4.55,1.46,17.56,17.56,0,0,1-5.41.25q-3.15-.28-5.46-.61a43.37,43.37,0,0,1-5.62-1.25c-2.21-.63-3.89-1.11-5-1.45S171,178,169,177.32l-3.4-1.18,10.06-30.4ZM195,227a13.52,13.52,0,0,1-8.63,4.83,35.18,35.18,0,0,1-5.39.53,38.66,38.66,0,0,1-5.95-.44c-2.28-.31-4.25-.65-5.93-1s-3.64-.88-5.92-1.52-4-1.18-5.29-1.59-2.84-1-4.74-1.63S150,225,149.5,224.85l11.08-33.47c.53.18,2.1.67,4.74,1.46s4.76,1.47,6.41,2,3.9,1.39,6.74,2.56a62,62,0,0,1,7,3.31,51.81,51.81,0,0,1,5.88,4,19.6,19.6,0,0,1,4.69,4.91,15.67,15.67,0,0,1,2.16,5.76,14,14,0,0,1-.61,6.83A13.61,13.61,0,0,1,195,227Z"/></g></g></svg>